/* XPM */
static char *d1c8022a0bdc4abea38858937ec3a571hBtdAuJ9IVXvuKtx[] = {
/* columns rows colors chars-per-pixel */
"62 46 6 1 ",
"  c #A35C29",
". c #A9612C",
"X c #AD6430",
"o c #AF6836",
"O c #B36933",
"+ c #B56E39",
/* pixels */
"OOO.OOOOOOOOOOOOOOOOOOOOOOOOOOOOOOOOOOO.OOOO++OOOXXXXX+++++OOO",
"++O.OOOOO++++OOOO++++OOOOOOOOOOOOOOOOOO.OOOOOOOOOOOOOOOOOOOOOO",
"OOO.OOOOOOOOOOOOOOOOOO++++++++OOOOOO+++.OOOOOOOO+++++++++OOOOO",
"OXX.OOOXXXO++++OOOXXXXOOOOOOOOOOOOOOOOO.O+++++OOOOOOXXXXXXXOOO",
"+++.OOOOOOOOOOOOO++++++OOOXXXXOOOO+++++.OOOOOOOOOOOOOOOOO+++OO",
"OOO.OO+++OXXXXOOOOOXXXXXXOOOOOOOOOOOOOO.OOOOOOOOOXXXXOOOOOOOOO",
"... ................... ............... ............... ......",
"OOOO+++++++++++OOOOOOOO.OOOOOOOOOOOOOOOXXXXXXXOOOOOOOOO.OOOOOO",
"OXXXOOOOOOOOOOOOOOOOOOO.OOOOOOOOOOOOOOOOOOOOOOOOOOOOOOO OO++++",
"OOOOOOO+++OOOOOOOOOOOOO OOOXXOOOOOXXXXOOOOOXXXX++++OOOO OOOOOO",
"OOOXXXXOOOXXXXOOOO+++++ OOOOOOOOOOOOOOOOOOOOOOOOOOOOOOO.OOOOOO",
"O++++OOOOOOOOOOOOOOOOOO OOO++++OOXXOOOO+++++OOOO++++++O OO+++O",
"OOOOOOOXXXXXOOOO++++++O.OOOOOOOOXXXXXOOOOOOOOOOOOOOOOOO.OOOOOO",
"OOOOO++++++OOOOOOOOOOOO.OOOOOOOOOOOOOOOOOOO++++OOOOOOOO.OOOOOO",
"... ................... ............... ............... ......",
"OOO.OOOOOOOOOOOOOOOOOOOOOOOOOOOOOOOOOOO.OOOOOOOOOOOOXXXXXXOOOO",
"O+O.OOOOOOOOOOOOOOOOOOOXXXXO+++OOOOOOOO.O++++OOOOOOOOOOOOO+++O",
"OOO OOOOXXXXXOOO++++++OOOOOOOOOOOOOOOOO OOXXXXXO++++++++OXXXOO",
"OOO OOOOOOOOOOOOOOOOOOOXXXOOOOOOOXXXXXO OOO++++OOOOOOOOOOOOOOO",
"++O OOOOO++OXXXOXXXX+++++OXXXXXOOOOOOOO OOOOOOOOOOOXXXXOOOOOOO",
"OOO OOOOOOOOOOOOOOOOOOOOOOOOOOOOOOOXXXX OOOXXOOOOOO+++++OXXXOO",
"OOO.OOO+++++OOOOOOOOOOOOOOOOOOOOOOOOOOO.OOOOOOOOOOOOOOOOOOOOOO",
"... ................... ...    ........ ............... ......",
"OOOOOOOOOOOOOOOOOOOOOOO.OOOOOOOOOOOOOOOOOOOOOOOOOOOOOOO.OOOOOO",
"OOOOOOOOOOXXXOO+++++OOO XXXXOOOXXXOOO++++OXXXXOOO++++OO OOOOOO",
"O++++oXXXOOOOOOOOOOOOOO OOOOOOOOOOOOOOOOOOOXXXXOOOOOOOO OOOOOO",
"OOOOOOOO++++++OOOOOOOOO OOXXXX++++++OOOOOOOOOOOOOOOOOOO OOO+++",
"++OOOOOOOOOOOOOOO+++++O.OOOOOOOOOOOOO++++++++OOOOOO+++O.OOOOOO",
"OOOO+++++OOOOOOOOOOOOOO.OO++++OOOOOOOOOOOOOOOOOOOOOOOOO OOOOOO",
"OOOOOOOOOOOOOOOOOOOOOOO.OOOOOOOOOOOOOOOOOOOOOOOOOOOOOOO.OOOOOO",
"..................   .. ............... ............... ......",
"OOO.OOO++++++OOOOOOOOOOOOOOOOOOOOOOOOOO.OOOOOOOOOOOOOOOOOOOOOO",
"OOO.OOOOOOOOOOOOOOOOOOOOOOOOOO+++++OOOO XXXOOOOO+++++OOOOOOOOO",
"OOO OOOXXXXOOOOOOOOOOO++++++OOOOOXXOOOO OOO++++OOOOOOOOOXXXXOO",
"O+O OOOOOOOOOOOOOOXXXXOOOXXXXXXOOOOOOOO OOOOOXXOOOXXXXXOOOOOOO",
"OOO.OOOOOOXXXXOOOOOOOOOOO+++++OOOOOoo++ OOOOOOO++++++++OOOO++O",
"+++ OOOOOOOOOOOOOOOXXXXOOOOOOOOOOOOOOOO OOOXXXOOOOOXXXXOOOOOOO",
"OOO.OOOOOOOOXXXOOOOOOOOOOOOOOOOOOOOOOOO.OOOOOOOOOOOOOOOOOOOOOO",
"... ................... ............... ............... ......",
"OOOOOXXXXOOOOOOOOOOXXXX.OOOOOOOOOXXXXXOOOOOOOOOOOOOXXXO.OOOOOO",
"OO++++OOOO+++++OO++++++ +++++OOOOOOOOO+++++++OOOOOO+++O.OXXXOO",
"OOOOOOOOOOOOOOOOOOOOOOO.OOOOOOO++++OOOOOOOOOOOOOXXXOOOO OO++++",
"OOXXXXO+++++OOOOOOOOOXX OOOOOOOOOOOOOOOXXXXOOOOOOOOOOOO XXXOOO",
"OOOOOOOXXXOOOOOOOO+++OO XO++OOOOOOOO++++OOOOXXOOOO+++++ OOOOOO",
"OOOOOOOOOOOXXXXOOOOOOOO.OOOOOOOOOOOOOOOOOXXXOOOOOOOOOOO.OO+++O",
"OOOOOO+++OOOOOOOOOOOOOO.OOOOOXXOOXXXXXXOOOOOOOO+++++OOO.OOOOOO"
};
