/* XPM */
static char *_5ed377213eb4e8fd305c49aa032970eff9MZr05AxiQdJFj[] = {
/* columns rows colors chars-per-pixel */
"58 93 252 2 ",
"   c #1D1D1C",
".  c #271E1C",
"X  c #391919",
"o  c #31211E",
"O  c #3E221E",
"+  c #1D2928",
"@  c #1D3738",
"#  c #272725",
"$  c #2B2B2A",
"%  c #372A26",
"&  c #3A2C21",
"*  c #39352C",
"=  c #302F34",
"-  c #2A3838",
";  c #383636",
":  c #393938",
">  c #523C1F",
",  c #422B23",
"<  c #4A2924",
"1  c #42312A",
"2  c #4A342B",
"3  c #513426",
"4  c #573C27",
"5  c #5C3D25",
"6  c #463A35",
"7  c #453D3C",
"8  c #3B433C",
"9  c #554615",
"0  c #67491D",
"q  c #554B2F",
"w  c #49483B",
"e  c #6A4726",
"r  c #65402A",
"t  c #744C2D",
"y  c #794C2E",
"u  c #705530",
"i  c #796430",
"p  c #2C3345",
"a  c #323B46",
"s  c #343E50",
"d  c #453E42",
"f  c #1F4748",
"g  c #1E4E51",
"h  c #1D5556",
"j  c #1E565A",
"k  c #1E5A5E",
"l  c #294647",
"z  c #364747",
"x  c #3A4641",
"c  c #384D4F",
"v  c #285759",
"b  c #355858",
"n  c #2C625D",
"m  c #1F5F63",
"M  c #35516A",
"N  c #1F6467",
"B  c #1F7B74",
"V  c #236869",
"C  c #386E6F",
"Z  c #206F71",
"A  c #247474",
"S  c #227E7F",
"D  c #4B4544",
"F  c #484846",
"G  c #544A49",
"H  c #5A544A",
"J  c #524E54",
"K  c #485757",
"L  c #555554",
"P  c #5B5859",
"I  c #685948",
"U  c #785640",
"Y  c #745748",
"T  c #664C54",
"R  c #635554",
"E  c #665B59",
"W  c #6A5C5A",
"Q  c #725552",
"!  c #58635A",
"~  c #6E6849",
"^  c #6A605C",
"/  c #746459",
"(  c #777556",
")  c #48596E",
"_  c #6C5B62",
"`  c #755D6E",
"'  c #476369",
"]  c #586366",
"[  c #4B6A78",
"{  c #516F77",
"}  c #636363",
"|  c #696A66",
" . c #6C6C6B",
".. c #756661",
"X. c #746963",
"o. c #7A6C66",
"O. c #7C6A6A",
"+. c #7A7568",
"@. c #6B6A78",
"#. c #697779",
"$. c #747473",
"%. c #797879",
"&. c #906917",
"*. c #865A27",
"=. c #985637",
"-. c #925C33",
";. c #A85E38",
":. c #AC6D31",
">. c #865946",
",. c #925B41",
"<. c #916E4F",
"1. c #877756",
"2. c #AA744B",
"3. c #835979",
"4. c #847869",
"5. c #8A6777",
"6. c #85797C",
"7. c #907173",
"8. c #C87D48",
"9. c #33847C",
"0. c #518A75",
"q. c #738E72",
"w. c #B28312",
"e. c #B08934",
"r. c #C79012",
"t. c #E9AB0E",
"y. c #CB9333",
"u. c #D3AB2F",
"i. c #E5A125",
"p. c #FFC200",
"a. c #908A59",
"s. c #9B8959",
"d. c #B08949",
"f. c #A08C53",
"g. c #A3845D",
"h. c #A7985C",
"j. c #B3A759",
"k. c #878A64",
"l. c #968862",
"z. c #969463",
"x. c #80807F",
"c. c #898679",
"v. c #968977",
"b. c #8A9474",
"n. c #A48962",
"m. c #A89667",
"M. c #B29C61",
"N. c #B19F6B",
"B. c #AB8C75",
"V. c #B09475",
"C. c #92A272",
"Z. c #B4A76A",
"A. c #A9A777",
"S. c #B8A974",
"D. c #BCB674",
"F. c #C79E46",
"G. c #C9B073",
"H. c #CEB27A",
"J. c #C5BB7A",
"K. c #D1BA7C",
"L. c #CBC27E",
"P. c #D0C17F",
"I. c #297F85",
"U. c #495A8E",
"Y. c #527287",
"T. c #58758A",
"R. c #5E7C94",
"E. c #786789",
"W. c #677685",
"Q. c #787887",
"!. c #777692",
"~. c #4959A3",
"^. c #576EAB",
"/. c #5D75D4",
"(. c #A4588B",
"). c #92738C",
"_. c #B07198",
"`. c #BA77A1",
"'. c #2C8487",
"]. c #368588",
"[. c #319691",
"{. c #30A296",
"}. c #27A5A8",
"|. c #508C90",
" X c #7A868A",
".X c #63849A",
"XX c #708D91",
"oX c #759397",
"OX c #61AD96",
"+X c #688AA3",
"@X c #6C95A7",
"#X c #7292AF",
"$X c #4AA6A7",
"%X c #73ACB2",
"&X c #7697DD",
"*X c #868784",
"=X c #8E8E8E",
"-X c #908F8C",
";X c #95928B",
":X c #878698",
">X c #959494",
",X c #989898",
"<X c #9C9C9C",
"1X c #B78D8A",
"2X c #A39988",
"3X c #A8859A",
"4X c #B78A97",
"5X c #AC9796",
"6X c #95A69C",
"7X c #A9A890",
"8X c #9390A2",
"9X c #B190A7",
"0X c #BB95A7",
"qX c #8DA8B0",
"wX c #A3A3A3",
"eX c #A9A7A5",
"rX c #ABAAAA",
"tX c #B0B0AF",
"yX c #BAB2A9",
"uX c #B0A9B6",
"iX c #B6B6B5",
"pX c #BBBABA",
"aX c #C7B684",
"sX c #D0B784",
"dX c #C48BA8",
"fX c #CA99B2",
"gX c #CEAEB9",
"hX c #C8AABE",
"jX c #CEC483",
"kX c #D6C483",
"lX c #DBC182",
"zX c #E1C887",
"xX c #C3C0BE",
"cX c #D5C9BE",
"vX c #90B8EC",
"bX c #DEB0C4",
"nX c #C4C3C3",
"mX c #CAC9C7",
"MX c #CCCCCC",
"NX c #D0CDCB",
"BX c #D1D0CF",
"VX c #D5D5D5",
"CX c #D9D8D6",
"ZX c #DBDBDB",
"AX c #E1E0DE",
"SX c #E4E4E4",
"DX c #E8E8E7",
"FX c #ECECEC",
"GX c #F0F0EF",
"HX c #F4F3F3",
"JX c #F8F7F6",
"KX c #FFFFFF",
/* pixels */
"KXKXKXKXKXKXKXKXKXKXKXKXKXKXKXKXKXKXKXKXKXKXKXKXKXKXKXKXKXKXKXKXKXKXKXKXKXKXKXKXKXKXKXKXKXKXKXKXKXKXKXKXKXKXKXKXKXKX",
"KXKXKXKXKXKXKXKXKXKXKXKXKXKXKXKXKXKXKXKXKXKXKXKXKXKXKXKXKXKXKXKXKXKXKXKXKXKXKXKXKXKXKXKXKXKXKXKXKXKXKXKXKXKXKXKXKXKX",
"KXKXKXKXKXKXKXKXKXKXKXKXKXKXKXKXKXKXKXKXKXKXKXKXKXKXKXKXKXKXKXKXKXKXKXKXKXKXKXKXKXKXKXKXKXKXKXKXKXKXKXKXKXKXKXKXKXKX",
"KXKXKXKXKXKXKXKXKXKXKXKXKXKXKXKXKXKXKXKXKXKXKXKXKXKXKXKXKXKXKXKXKXKXKXKXKXKXKXKXKXKXKXKXKXKXKXKXKXKXKXKXKXKXKXKXKXKX",
"KXKXKXKXKXKXKXKXKXKXKXKXKXKXKXKXKXKXKXKXKXKXKXKXKXKXKXKXKXKXKXKXKXKXKXKXKXKXKXKXKXKXKXKXKXKXKXKXKXKXKXKXKXKXKXKXKXKX",
"KXKXKXKXKXKXKXKXKXKXKXKXKXKXKXKXKXKXKXKXKXKXKXKXKXKXKXKXKXKXKXKXKXKXKXKXKXKXKXKXKXKXKXKXKXKXKXKXKXKXKXKXKXKXKXKXKXKX",
"KXKXKXKXKXKXKXKXKXKXKXKXKXKXKXKXKXKXKXKXKXKXKXKXKXKXKXKXKXKXKXKXKXKXKXKXKXKXKXKXKXKXKXKXKXKXKXKXKXKXKXKXKXKXKXKXKXKX",
"KXKXKXKXKXKXKXKXKXKXKXKXKXKXKXKXKXKXKXKXKXKXKXKXKXKXKXKXKXKXKXKXKXKXKXKXKXKXKXKXKXKXKXKXKXKXKXKXKXKXKXKXKXKXKXKXKXKX",
"KXKXKXKXKXKXKXKXKXKXKXKXKXKXKXKXKXKXKXKXKXKXKXKXKXKXKXKXKXKXKXKXKXKXKXKXKXKXKXKXKXKXKXKXKXKXKXKXKXKXKXKXKXKXKXKXKXKX",
"KXKXKXKXKXKXKXKXKXKXKXKXKXKXKXKXKXKXKXKXKXKXKXKXKXKXKXKXKXKXKXKXKXKXKXKXKXKXKXKXKXKXKXKXKXKXKXKXKXKXKXKXKXKXKXKXKXKX",
"KXKXKXKXKXKXKXKXKXKXKXKXKXKXKXKXKXKXKXKXKXKXKXKXKXKXKXKXKXKXKXKXKXKXKXKXKXKXKXKXKXKXKXKXKXKXKXKXKXKXKXKXKXKXKXKXKXKX",
"KXKXKXKXKXKXKXKXJXHXHXHXJXKXKXKXKXKXKXKXKXKXKXKXKXKXKXKXKXKXKXKXKXKXKXKXKXKXKXKXKXKXKXKXKXKXKXKXKXKXKXKXKXKXKXKXKXKX",
"KXKXKXKXKXKXKXFXZXMXpXMXSXHXKXKXKXKXKXKXKXKXKXKXKXKXKXKXKXKXKXKXKXKXKXKXKXKXKXKXKXKXKXKXKXKXKXKXKXKXKXKXKXKXKXKXKXKX",
"KXKXKXKXKXKXKXZXpX>X$.<XnXSXKXKXKXKXKXKXKXKXKXKXKXKXKXKXKXKXKXKXKXKXKXKXKXKXKXKXKXKXKXKXKXKXKXKXKXKXKXKXKXKXKXKXKXKX",
"KXKXKXKXKXKXKXMX<X .: %.rXZXKXKXKXKXKXKXKXKXKXKXKXKXKXKXKXKXKXKXKXKXKXKXKXKXKXKXKXKXKXKXKXKXKXKXKXKXKXKXKXKXKXKXKXKX",
"KXKXKXJXHXFXSXiX=X] =  .>XnXSXFXHXJXKXKXKXKXKXKXKXKXJXHXFXSXSXSXSXSXFXHXJXKXKXKXKXKXKXKXKXKXKXKXKXKXKXKXKXKXKXKXKXKX",
"KXKXKXGXVXxXrX,X XW.) W.:X<XtXnXZXGXKXKXKXKXKXKXKXKXGXZXnXtXrXrXrXrXxXVXFXKXKXKXKXKXKXKXKXKXKXKXKXKXKXKXKXKXKXKXKXKX",
"KXKXKXSXpX>X$.%.!.XX#XXXQ.%.%.<XnXSXKXKXKXKXKXKXKXKXSXnX<X%.$.$.$.$.>XpXZXKXKXKXKXKXKXKXKXKXKXKXKXKXKXKXKXKXKXKXKXKX",
"KXKXKXZX<X .: ] W.qXvX#XW.K F %.rXZXKXKXKXKXKXKXKXKXZXeX%.F : : : :  .<XMXKXKXKXKXKXKXKXKXKXKXKXKXKXKXKXKXKXKXKXKXKX",
"KXKXKXVX=XL   c T.qXvX#X{ a $ } <XVXKXKXKXKXJXGXSXCXiX;XX.w 6 * * * ^ *XrXCXSXFXJXKXKXKXKXKXKXKXKXKXKXKXKXKXKXKXKXKX",
"KXKXKXVX=XL   c Y.#XvX#X[ a $ } <XVXKXKXKXKXHXZXpXwX;Xc.4./ ~ ~ ~ ~ ( c.-XwXpXVXFXKXKXKXKXKXKXKXKXKXKXKXKXKXKXKXKXKX",
"KXKXKXVX=XL   z Y.#XvX+X) a $ } <XVXKXKXKXKXFXnX>X .X.4.l.m.m.z.z.z.k.+.|  .>XpXSXKXKXKXKXKXKXKXKXKXKXKXKXKXKXKXKXKX",
"KXKXKXVX=XL   s U.^.&X^.) p $ } <XVXKXKXKXKXSXtX .; w / m.H.sXJ.J.D.z.( w :  .wXCXKXKXKXKXKXKXKXKXKXKXKXKXKXKXKXKXKX",
"KXKXKXVX=XL   s U.^.&X^.) p $ } <XVXJXGXSXZXnX<XX.w H 1.N.sXkXP.J.D.z.( H w | ;XiXCXSXFXJXKXKXKXKXKXKXKXKXKXKXKXKXKX",
"KXKXKXVX=XL   a ) ^.&X^.M p $ } <XVXHXZXnXrX>Xc.4.( 1.z.S.jXP.J.D.Z.z.a.( ~ +.c.;XwXpXVXHXKXKXKXKXKXKXKXKXKXKXKXKXKX",
"KXKXKXVX=XL   p M ^./.~.M = $ } <XVXFXnX<X%.| +.l.m.N.S.J.jXJ.D.Z.h.h.z.z.k.k.+.|  .>XpXFXKXKXKXKXKXKXKXKXKXKXKXKXKX",
"KXKXKXVX=XL   p M ~./.U.M = $ } <XVXSXrX$.: * I m.sXlXkXjXL.D.Z.h.s.h.Z.D.D.z.~ * $ } <XSXKXKXKXKXKXKXKXKXKXKXKXKXKX",
"KXKXKXVX=XL   : J @.:X@.J ; $ L 6.eXiX>X+.H I 1.Z.kXkXP.J.D.S.N.m.n.m.Z.Z.Z.a.I * $ } <XSXKXKXKXKXKXKXKXKXKXKXKXKXKX",
"KXKXKXVX=XL   6 I 1.m.1.u 2 % D E %.*Xc.4.1.1.m.S.jXP.J.D.Z.Z.V.V.B.V.V.N.m.1.q * $ } <XSXKXKXKXKXKXKXKXKXKXKXKXKXKX",
"KXKXKXVX=XL   9 i e.u.e.i 9 & 6 w G E ( l.m.S.S.J.L.J.D.Z.h.m.V.1X4X1XV.m.s.~ q % $ } <XSXKXKXKXKXKXKXKXKXKXKXKXKXKX",
"KXKXKXVX=XL   9 &.r.p.r.&.0 & % o . * I l.H.zXkXjXL.D.Z.h.s.g.B.4XdX4XB.n.a.i q % $ } <XSXKXKXKXKXKXKXKXKXKXKXKXKXKX",
"KXKXKXVX=XL   > i w.t.w.&.0 , & o . * I s.H.lXkXJ.D.A.C.C.q.b.2X0XfX0X2Xb.q.! w $ $ } <XSXKXKXKXKXKXKXKXKXKXKXKXKXKX",
"KXKXKXVX=XL   > 0 &.r.&.y 5 , O X X , Y s.H.lXK.D.Z.C.q.q.|.OX6XrXgXrX6XoX|.C c @ $ } <XSXKXKXKXKXKXKXKXKXKXKXKXKXKX",
"KXKXKXVX=XL   & e *.:.*.e 3 , O X X < U g.H.lXH.Z.h.z.q.|.{.$X%XuXbXuX%X$X{.B h @ $ } <XSXKXKXKXKXKXKXKXKXKXKXKXKXKX",
"KXKXKXVX=XL   & 4 t -.y r 3 , O X X < U g.H.lXG.M.f.k.0.{.}.}.%XuXbXuX%X$X}.I.k @ $ } <XSXKXKXKXKXKXKXKXKXKXKXKXKXKX",
"KXKXKXVX=XL   & 4 t -.y r 3 , O X X < U g.H.lXG.M.f.k.q.|.$X%XqXiXbXiXqX%X$XS v - $ } <XSXKXKXKXKXKXKXKXKXKXKXKXKXKX",
"KXKXKXVX=XL   & 4 t -.y r 3 , O X X < U g.H.lXG.M.f.l.b.oX@XqXuXbXbXbXuXqX@X{ b - $ } <XSXKXKXKXKXKXKXKXKXKXKXKXKXKX",
"KXKXKXVX=XL   & 4 t -.y r 3 , O X X < U g.H.lXG.M.f.l.v.;X<X9XuXbXbXbXhXuX8X%.L ; $ } <XSXKXKXKXKXKXKXKXKXKXKXKXKXKX",
"KXKXKXVX=XL   & 4 t -.y r 3 , O X X < U g.H.lXG.M.f.g.B.1XdXfXfXgXbXgXfXfX4X5.T ; $ } <XSXKXJXHXHXHXJXJXKXKXKXKXKXKX",
"KXKXKXVX=XL   & 4 t -.y r 3 , O X X < U g.H.lXG.M.f.n.B.1XdXdXdXdXdXdXdX0X_.5.T ; $ } <XSXHXAXMXiXiXBXSXJXKXKXKXKXKX",
"KXKXKXVX=XL   & 4 t -.y r 3 , O X X < U g.H.lXG.M.s.n.B.1XdXdXdX`.`.`.`.`._.3.T ; $ } <XSXFXMXeX*X*XtXVXHXKXKXKXKXKX",
"KXKXKXVX=XL   & 4 t -.y r 3 , O X X < U g.H.lXG.M.f.n.B.1XdXdX`._.(.(._._._.3.T = $ } <XSXDXiX*XL L ;XnXHXKXKXKXKXKX",
"KXKXKXVX=XL   & 4 t -.y r 3 , & % % 6 ~ n.H.lXG.M.f.l.B.1X9X3X_.(.(.(.(.).).` J a - ] >XMXMXwX$.D D 6.rXZXFXGXHXKXKX",
"KXKXKXVX=XL   & 4 t -.y r 3 , * : z K +.m.sXlXG.M.f.s.v.*X:X:X!.E.E.E.E.!.!.W.' b v {  X<XwX=X6._ _ 6.>XeXpXBXSXJXKX",
"KXKXKXVX=XL   & 4 t -.y r 3 1 8 c n 0.q.A.sXlXG.M.f.a.k.q..X.XT.T.Y.Y.T.T.T.Y.I.A A [ { #.$.%.6.).).6.%.$.=XtXVXHXKX",
"KXKXKXVX=XL   & 4 t -.y r 3 1 c C [.$XOX7XjXlXG.M.f.a.q.0.].'.'.'.'.'.'.'.'.[.[.{.{.9.n - : W ).0X0X6.P ; L *XpXHXKX",
"KXKXKXVX=XL   & 4 t -.y r 3 1 K { |.OX%X6X7XaXS.N.h.z.q.0.0.9.].].].'.'.'.'.[.[.$X$X|.' x d W 6.3X3X6.} G  .,XnXHXKX",
"KXKXKXVX=XL   & 4 t -.y r 3 2 L #.oXqXqX6X7X7XA.S.Z.m.z.q.0.0.|.|.|.].].].I.|.|.@X@XXX#._ E _ O.5.6.6.6.6.,XiXCXJXKX",
"KXKXKXVX=XL   & 4 t -.y r 3 2 R %.,XuXwX,X=X-X;XS.G.S.N.z.q.q.q.|.|.|.|.T.Y..XoX8X8X8X).).5.` _ R E 6.,XtXnXCXFXJXKX",
"KXKXKXVX=XL   & 4 t -.y r 3 2 Q 7.0XhXeX8XXX X-X7XkXK.S.M.s.k.q.XX@X+X.XR.T.!.:X9X0X0X4X4X_.5.T ; d 6.tXSXHXJXJXKXKX",
"KXKXKXVX=XL   & 4 t -.y r 3 2 Q 7.0XhX9X:XW.T. X2XaXaXS.m.z.b.*XoX@X+X.XR.T.!.).:X3X3X3X3X).` G $ : x.pXHXKXKXKXKXKX",
"KXKXKXVX=XL   & 4 t -.y r 3 2 Q 7.4XfX8X!.{ [ #.*X2X2X;Xb.b.c.oXoX@X+X.XR.T.W.W.Q.Q.Q.Q.Q.@.P d $ : x.pXHXKXKXKXKXKX",
"KXKXKXVX=XL   & 4 t -.y r 3 2 T 5.4X0X:XW.C C [ W. X X XoXoXoXoX@X@X+X.XR.T.Y.[ [ ' ' ' ' ' c - # : 6.pXHXKXKXKXKXKX",
"KXKXKXVX=XL   & 4 t -.y r 3 2 T 5._.3X).{ n v C [ T.R..X+X@X@X@X@X@X+X.XR.T.[ C v h j j h g f @ + : 6.pXHXKXKXKXKXKX",
"KXKXKXVX=XL   & 4 t -.y r 3 2 G ` ).:XW.[ n v b ] @.#.Q. X=X=X-X;XC.b.x.%.@.] ' v j j k m j f @ + : x.pXHXKXKXKXKXKX",
"KXKXKXVX=XL   & 4 t -.y r 3 1 G } W..XY.C v v K } ..4.4.7.v.B.m.j.j.h.s.1...} K v h k N N N g @ + : x.pXHXKXKXKXKXKX",
"KXKXKXVX=XL   & 4 t -.y r 3 1 F ' { |.C C v v K Q >.<.2.2.g.M.F.u.u.y.e.2.>.I L b h m V A Z h @ + : x.pXHXKXKXKXKXKX",
"KXKXKXVX=XL   & 4 t -.y r 3 1 x b A I.Z N k v L U =.;.:.2.8.y.i.t.p.t.r.:.=.u H b h N Z S A k f + : x.pXHXKXKXKXKXKX",
"KXKXKXVX=XL   & 4 t -.y r 3 1 x b A S Z N k v K I >.,.,.2.2.2.y.y.u.y.e.:.>.I L b h N Z S A v f + : x.pXHXKXKXKXKXKX",
"KXKXKXVX=XL   & 4 t -.y r 3 1 x b A S Z N k v K R Y >.>.>.<.<.d.d.e.d.2.,.Y R K b h V Z S A v f + : x.pXHXKXKXKXKXKX",
"KXKXKXVX=XL   & 4 t -.y r 3 1 x b A S Z N k v b L R Q Q Q Q / 1.1.s.1.1./ R L K v h N Z S A v f + : x.pXHXKXKXKXKXKX",
"KXKXKXVX=XL   & 4 t -.y r 3 1 x b A S Z N k v b K P R R R R W ..o.4.o...W R L b v h N N S A v l - F *XpXHXKXKXKXKXKX",
"KXKXKXVX=XL   & 4 t -.y r 3 1 x b A S Z N k v b J H R E W W ^ ..o.o.o...^ W P K v h k v V V n ' ] %.eXMXHXKXKXKXKXKX",
"KXKXKXVX=XL   & 4 t -.y r 3 1 x b A S Z N k v b J H R W ^ ..X...............! K v h h g l b ' #.=XrXmXSXJXKXKXKXKXKX",
"KXKXKXVX=XL   & 4 t -.y r 3 1 x b A S Z N k v b K H E ^ X.O.o...W W W ..o.+.| ' b h g f @ z  .>XxXZXDXHXKXKXKXKXKXKX",
"KXKXKXVX=XL   & 4 t -.y r 3 1 8 b V Z V N k v b L R W ..o.4.o.^ R G R W o.O.| K b g l l : L *XiXSXKXKXKXKXKXKXKXKXKX",
"KXKXKXVX=XL   & 4 t -.y r 3 , : l v v j j h v b P ^ ^ ..X.o.^ R G 7 G R ^ X.P K l l c K  .*XeXMXFXKXKXKXKXKXKXKXKXKX",
"KXKXKXVX=XL   & 4 t -.y r 3 , * - - f f g h v K ] X.o.....^ E G 7 ; 7 G R W L F - - K #.<XiXMXAXHXKXKXKXKXKXKXKXKXKX",
"KXKXKXVX=XL   & 4 t -.y r 3 , % $ # + @ f g v ' | O.o.X.^ W H 7 * # * 7 G R D : $ $ P =XMXSXFXHXKXKXKXKXKXKXKXKXKXKX",
"KXKXKXVX=XL   & 4 t -.t r 3 & & * ; : l l l v '  .6.4.X.W H G D 7 : 7 D G G D : = ; } >XMXSXFXHXKXKXKXKXKXKXKXKXKXKX",
"KXKXKXVX=XL   & 4 t -.t 5 , & 7 H }  .P c l l K +.v.4.X.R D G P } $.} P G 7 7 7 7 D ^ %.<XiXMXAXHXKXKXKXKXKXKXKXKXKX",
"KXKXKXVX=XL   & 4 t -.t 4 % $ H %.<XeX X] a - L +.;Xv.X.G ; D $.>XpX,X$.L * 7 G H E E ^ } %.<XnXFXKXKXKXKXKXKXKXKXKX",
"KXKXKXVX=XL   & 4 t -.e 3 % $ ^ >XMXVXwX .: = H 4.2Xv./ D # D *XpXHXpX*XL # : G / o.E G ; F %.tXSXKXKXKXKXKXKXKXKXKX",
"KXKXKXZXwX%.F H / <.2.<.Q H L *XrXZXFXpX=XP L +.;XyX7Xc.X.G  .wXVXKXVXwX%.G E +.c.;X6.| J P =XpXFXKXKXKXKXKXKXKXKXKX",
"KXKXKXDXxX<Xx.*X2X5XaX2X;X*X*XeXmXDXGXBXtX;X*X<XyXcXxXrX,X*X,XxXAXKXAXxX<X*X;X<XrXyXeX,X*X;XtXBXGXKXKXKXKXKXKXKXKXKX",
"KXKXKXHXZXMXpXgXxXcXcXcXxXpXpXMXSXHXHXSXVXnXpXmXCXAXZXBXnXpXnXZXFXKXFXZXMXpXnXmXBXCXNXnXpXnXVXSXHXKXKXKXKXKXKXKXKXKX",
"KXKXKXKXJXHXHXHXHXHXJXHXHXHXHXHXJXKXKXJXHXHXHXHXJXJXJXHXHXHXHXJXKXKXKXJXHXHXHXHXHXJXHXHXHXHXHXJXKXKXKXKXKXKXKXKXKXKX",
"KXKXKXKXKXKXKXKXKXKXKXKXKXKXKXKXKXKXKXKXKXKXKXKXKXKXKXKXKXKXKXKXKXKXKXKXKXKXKXKXKXKXKXKXKXKXKXKXKXKXKXKXKXKXKXKXKXKX",
"KXKXKXKXKXKXKXKXKXKXKXKXKXKXKXKXKXKXKXKXKXKXKXKXKXKXKXKXKXKXKXKXKXKXKXKXKXKXKXKXKXKXKXKXKXKXKXKXKXKXKXKXKXKXKXKXKXKX",
"KXKXKXKXKXKXKXKXKXKXKXKXKXKXKXKXKXKXKXKXKXKXKXKXKXKXKXKXKXKXKXKXKXKXKXKXKXKXKXKXKXKXKXKXKXKXKXKXKXKXKXKXKXKXKXKXKXKX",
"KXKXKXKXKXKXKXKXKXKXKXKXKXKXKXKXKXKXKXKXKXKXKXKXKXKXKXKXKXKXKXKXKXKXKXKXKXKXKXKXKXKXKXKXKXKXKXKXKXKXKXKXKXKXKXKXKXKX",
"KXKXKXKXKXKXKXKXKXKXKXKXKXKXKXKXKXKXKXKXKXKXKXKXKXKXKXKXKXKXKXKXKXKXKXKXKXKXKXKXKXKXKXKXKXKXKXKXKXKXKXKXKXKXKXKXKXKX",
"KXKXKXKXKXKXKXKXKXKXKXKXKXKXKXKXKXKXKXKXKXKXKXKXKXKXKXKXKXKXKXKXKXKXKXKXKXKXKXKXKXKXKXKXKXKXKXKXKXKXKXKXKXKXKXKXKXKX",
"KXKXKXKXKXKXKXKXKXKXKXKXKXKXKXKXKXKXKXKXKXKXKXKXKXKXKXKXKXKXKXKXKXKXKXKXKXKXKXKXKXKXKXKXKXKXKXKXKXKXKXKXKXKXKXKXKXKX",
"KXKXKXKXKXKXKXKXKXKXKXKXKXKXKXKXKXKXKXKXKXKXKXKXKXKXKXKXKXKXKXKXKXKXKXKXKXKXKXKXKXKXKXKXKXKXKXKXKXKXKXKXKXKXKXKXKXKX",
"KXKXKXKXKXKXKXKXKXKXKXKXKXKXKXKXKXKXKXKXKXKXKXKXKXKXKXKXKXKXKXKXKXKXKXKXKXKXKXKXKXKXKXKXKXKXKXKXKXKXKXKXKXKXKXKXKXKX",
"KXKXKXKXKXKXKXKXKXKXKXKXKXKXKXKXKXKXKXKXKXKXKXKXKXKXKXKXKXKXKXKXKXKXKXKXKXKXKXKXKXKXKXKXKXKXKXKXKXKXKXKXKXKXKXKXKXKX",
"KXKXKXKXKXKXKXKXKXKXKXKXKXKXKXKXKXKXKXKXKXKXKXKXKXKXKXKXKXKXKXKXKXKXKXKXKXKXKXKXKXKXKXKXKXKXKXKXKXKXKXKXKXKXKXKXKXKX",
"KXKXKXKXKXKXKXKXKXKXKXKXKXKXKXKXKXKXKXKXKXKXKXKXKXKXKXKXKXKXKXKXKXKXKXKXKXKXKXKXKXKXKXKXKXKXKXKXKXKXKXKXKXKXKXKXKXKX",
"KXKXKXKXKXKXKXKXKXKXKXKXKXKXKXKXKXKXKXKXKXKXKXKXKXKXKXKXKXKXKXKXKXKXKXKXKXKXKXKXKXKXKXKXKXKXKXKXKXKXKXKXKXKXKXKXKXKX",
"KXKXKXKXKXKXKXKXKXKXKXKXKXKXKXKXKXKXKXKXKXKXKXKXKXKXKXKXKXKXKXKXKXKXKXKXKXKXKXKXKXKXKXKXKXKXKXKXKXKXKXKXKXKXKXKXKXKX",
"KXKXKXKXKXKXKXKXKXKXKXKXKXKXKXKXKXKXKXKXKXKXKXKXKXKXKXKXKXKXKXKXKXKXKXKXKXKXKXKXKXKXKXKXKXKXKXKXKXKXKXKXKXKXKXKXKXKX",
"KXKXKXKXKXKXKXKXKXKXKXKXKXKXKXKXKXKXKXKXKXKXKXKXKXKXKXKXKXKXKXKXKXKXKXKXKXKXKXKXKXKXKXKXKXKXKXKXKXKXKXKXKXKXKXKXKXKX"
};
