/* XPM */
static char *_d5d8ce178a94152f3a7fe2edc65b0e4deVq38gqIWa38U0T[] = {
/* columns rows colors chars-per-pixel */
"68 84 29 1 ",
"  c None",
". c #1D1D1C",
"X c #371115",
"o c #432B23",
"O c #1E5459",
"+ c #625353",
"@ c #925C33",
"# c #A15735",
"$ c #897A71",
"% c #FFC200",
"& c #9C8850",
"* c #CB804A",
"= c #C5C57F",
"- c #5A748D",
"; c #586DD0",
": c #A94B84",
"> c #AC6CA2",
", c #238585",
"< c #04AEAE",
"1 c #30B3A7",
"2 c #6E95A9",
"3 c #6FBDD5",
"4 c #789EEC",
"5 c #B5A793",
"6 c #C58FAA",
"7 c #E5C989",
"8 c #DFB2C6",
"9 c #86F1D6",
"0 c #A9D4FB",
/* pixels */
"                                                                    ",
"                                                                    ",
"                                                                    ",
"                                                                    ",
"                                                                    ",
"                                                                    ",
"                                                                    ",
"                                                                    ",
"                                                                    ",
"             ....                                                   ",
"             ....                                                   ",
"             ....                                                   ",
"             ....                                                   ",
"         ....0000....            ........                           ",
"         ....0000....            ........                           ",
"         ....0000....            ........                           ",
"         ....0000....            ........                           ",
"         ....4444....        ....7777====....                       ",
"         ....4444....        ....7777====....                       ",
"         ....4444....        ....7777====....                       ",
"         ....4444....        ....7777====....                       ",
"         ....;;;;....    ....7777====&&&&====....                   ",
"         ....;;;;....    ....7777====&&&&====....                   ",
"         ....;;;;....    ....7777====&&&&====....                   ",
"         ....;;;;....    ....7777====&&&&====....                   ",
"         ....%%%%oooo....7777====&&&&6666&&&&....                   ",
"         ....%%%%oooo....7777====&&&&6666&&&&....                   ",
"         ....%%%%oooo....7777====&&&&6666&&&&....                   ",
"         ....%%%%oooo....7777====&&&&6666&&&&....                   ",
"         ....@@@@ooooXXXX7777&&&&<<<<8888<<<<....                   ",
"         ....@@@@ooooXXXX7777&&&&<<<<8888<<<<....                   ",
"         ....@@@@ooooXXXX7777&&&&<<<<8888<<<<....                   ",
"         ....@@@@ooooXXXX7777&&&&<<<<8888<<<<....                   ",
"         ....@@@@ooooXXXX7777&&&&666688886666....                   ",
"         ....@@@@ooooXXXX7777&&&&666688886666....                   ",
"         ....@@@@ooooXXXX7777&&&&666688886666....                   ",
"         ....@@@@ooooXXXX7777&&&&666688886666....                   ",
"         ....@@@@ooooXXXX7777&&&&6666::::>>>>....    ....           ",
"         ....@@@@ooooXXXX7777&&&&6666::::>>>>....    ....           ",
"         ....@@@@ooooXXXX7777&&&&6666::::>>>>....    ....           ",
"         ....@@@@ooooXXXX7777&&&&6666::::>>>>....    ....           ",
"         ....@@@@oooo11117777&&&&,,,,,,,,,,,,1111....8888....       ",
"         ....@@@@oooo11117777&&&&,,,,,,,,,,,,1111....8888....       ",
"         ....@@@@oooo11117777&&&&,,,,,,,,,,,,1111....8888....       ",
"         ....@@@@oooo11117777&&&&,,,,,,,,,,,,1111....8888....       ",
"         ....@@@@oooo8888----7777&&&&2222----66666666....           ",
"         ....@@@@oooo8888----7777&&&&2222----66666666....           ",
"         ....@@@@oooo8888----7777&&&&2222----66666666....           ",
"         ....@@@@oooo8888----7777&&&&2222----66666666....           ",
"         ....@@@@oooo6666OOOO----22222222----OOOOOOOO....           ",
"         ....@@@@oooo6666OOOO----22222222----OOOOOOOO....           ",
"         ....@@@@oooo6666OOOO----22222222----OOOOOOOO....           ",
"         ....@@@@oooo6666OOOO----22222222----OOOOOOOO....           ",
"         ....@@@@oooo,,,,OOOO####****%%%%####OOOO,,,,....           ",
"         ....@@@@oooo,,,,OOOO####****%%%%####OOOO,,,,....           ",
"         ....@@@@oooo,,,,OOOO####****%%%%####OOOO,,,,....           ",
"         ....@@@@oooo,,,,OOOO####****%%%%####OOOO,,,,....           ",
"         ....@@@@oooo,,,,OOOO++++++++$$$$++++OOOO,,,,....           ",
"         ....@@@@oooo,,,,OOOO++++++++$$$$++++OOOO,,,,....           ",
"         ....@@@@oooo,,,,OOOO++++++++$$$$++++OOOO,,,,....           ",
"         ....@@@@oooo,,,,OOOO++++++++$$$$++++OOOO,,,,....           ",
"         ....@@@@oooo,,,,OOOO++++$$$$++++$$$$OOOO....               ",
"         ....@@@@oooo,,,,OOOO++++$$$$++++$$$$OOOO....               ",
"         ....@@@@oooo,,,,OOOO++++$$$$++++$$$$OOOO....               ",
"         ....@@@@oooo,,,,OOOO++++$$$$++++$$$$OOOO....               ",
"         ....@@@@oooo....OOOO$$$$++++....++++....                   ",
"         ....@@@@oooo....OOOO$$$$++++....++++....                   ",
"         ....@@@@oooo....OOOO$$$$++++....++++....                   ",
"         ....@@@@oooo....OOOO$$$$++++....++++....                   ",
"         ....@@@@....    ....5555....    ....$$$$....               ",
"         ....@@@@....    ....5555....    ....$$$$....               ",
"         ....@@@@....    ....5555....    ....$$$$....               ",
"         ....@@@@....    ....5555....    ....$$$$....               ",
"                                                                    ",
"                                                                    ",
"                                                                    ",
"                                                                    ",
"                                                                    ",
"                                                                    ",
"                                                                    ",
"                                                                    ",
"                                                                    ",
"                                                                    ",
"                                                                    "
};
